<?xml version="1.0" standalone="no"?>
<!DOCTYPE svg PUBLIC "-//W3C//DTD SVG 20010904//EN"
 "http://www.w3.org/TR/2001/REC-SVG-20010904/DTD/svg10.dtd">
<svg version="1.0" xmlns="http://www.w3.org/2000/svg"
 width="383.000000pt" height="383.000000pt" viewBox="0 0 383.000000 383.000000"
 preserveAspectRatio="xMidYMid meet">
<metadata>
Created by potrace 1.11, written by Peter Selinger 2001-2013
</metadata>
<g transform="translate(0.000000,383.000000) scale(0.100000,-0.100000)"
fill="#000000" stroke="none">
<path d="M1357 3484 c-26 -8 -70 -28 -98 -44 -27 -17 -52 -30 -55 -30 -4 0
-57 -46 -97 -83 -10 -10 -25 -34 -33 -52 -7 -19 -18 -36 -23 -40 -6 -3 -8 -12
-4 -20 3 -8 0 -15 -6 -15 -23 0 -1 -171 32 -238 9 -19 12 -20 19 -7 13 23 27
18 22 -7 -2 -13 -2 -18 1 -11 4 6 22 28 41 48 22 23 34 45 32 58 -2 13 5 25
18 32 11 5 19 15 17 21 -4 12 53 65 61 57 3 -4 6 0 6 8 0 8 11 24 24 36 22 21
25 22 37 6 8 -9 9 -14 3 -10 -7 4 -14 -2 -17 -15 -7 -26 -1 -36 13 -22 15 15
24 74 11 74 -6 0 -11 7 -11 15 0 8 5 15 11 15 6 0 9 7 5 15 -3 8 -1 15 4 15 6
0 10 -6 10 -14 0 -8 10 -17 23 -19 l22 -4 -23 -2 c-21 -1 -22 -4 -16 -38 4
-21 10 -40 14 -43 4 -3 9 -12 12 -20 4 -10 8 -7 13 12 4 15 2 36 -5 49 -11 19
-10 21 4 16 14 -6 20 3 18 24 -1 10 69 2 80 -9 7 -7 -2 -9 -30 -5 -37 5 -42 3
-47 -19 -4 -16 1 -40 15 -67 18 -33 25 -39 36 -30 11 9 14 8 14 -2 0 -12 2
-12 9 0 7 11 11 9 20 -8 13 -24 31 -28 31 -6 0 8 5 15 10 15 6 0 10 -6 10 -14
0 -11 10 -14 42 -11 23 3 48 -1 55 -7 22 -18 76 -16 96 4 10 10 25 19 35 20 9
0 24 2 32 2 9 1 28 -22 45 -54 38 -69 65 -79 65 -22 0 45 -13 91 -41 144 -11
20 -19 40 -17 45 4 17 -31 82 -51 95 -12 7 -21 18 -21 24 0 20 -81 81 -115 87
-11 2 -33 10 -50 19 -42 22 -173 45 -212 37 -17 -3 -35 -3 -40 1 -4 4 -29 1
-56 -6z m391 -154 c24 -23 26 -29 13 -49 -12 -19 -50 -5 -60 22 -8 21 2 47 18
47 4 0 17 -9 29 -20z m-88 -11 c0 -5 -7 -9 -15 -9 -9 0 -12 6 -9 15 6 15 24
11 24 -6z m-230 -20 c0 -5 -7 -9 -15 -9 -8 0 -15 7 -15 15 0 9 6 12 15 9 8 -4
15 -10 15 -15z m181 -63 c12 -13 11 -36 -1 -36 -15 0 -31 47 -23 67 7 16 8 16
11 -2 2 -11 8 -24 13 -29z m224 -24 c3 -15 8 -36 11 -47 3 -11 -6 -3 -20 17
-14 20 -26 44 -26 52 0 25 28 7 35 -22z m-108 22 c-3 -3 -12 -4 -19 -1 -8 3
-5 6 6 6 11 1 17 -2 13 -5z m-177 -34 l0 -30 -21 21 c-17 17 -19 23 -8 30 23
15 29 10 29 -21z m-30 -40 c0 -5 -2 -10 -4 -10 -3 0 -8 5 -11 10 -3 6 -1 10 4
10 6 0 11 -4 11 -10z"/>
<path d="M2578 3243 c-23 -15 -33 -15 -61 -5 -62 22 -157 10 -157 -21 0 -7
-16 -21 -36 -31 -32 -15 -36 -15 -31 -1 6 13 3 13 -19 -2 -19 -12 -22 -18 -12
-24 7 -5 21 -6 31 -3 32 10 17 -13 -40 -62 -31 -27 -61 -53 -67 -59 -42 -38
-46 -39 -40 -4 l5 34 -30 -34 c-16 -18 -52 -79 -80 -135 -46 -92 -51 -98 -52
-66 -2 56 -23 133 -38 138 -17 6 -7 -75 21 -167 23 -74 27 -291 8 -376 -6 -28
-11 -72 -11 -100 0 -42 -7 -60 -45 -119 -39 -62 -66 -127 -67 -163 0 -7 -7
-15 -15 -18 -8 -3 -12 0 -10 7 5 13 -39 68 -53 68 -5 0 -13 -19 -19 -42 -6
-24 -27 -94 -47 -155 -19 -62 -33 -122 -30 -132 3 -12 -1 -21 -9 -23 -19 -4
38 -68 60 -68 9 0 13 -6 10 -15 -6 -13 33 -73 48 -74 3 -1 9 12 13 28 3 16 13
32 21 35 17 6 17 7 3 -33 -6 -17 -15 -31 -20 -31 -15 0 -10 -30 6 -36 8 -4 22
-21 31 -40 9 -19 22 -34 29 -34 7 0 15 -4 17 -9 5 -15 52 -73 88 -112 37 -39
39 -42 82 -106 23 -35 33 -41 73 -46 52 -8 69 -2 61 19 -3 8 0 14 7 13 26 -4
77 23 77 41 0 11 5 22 10 25 6 3 10 16 10 29 0 12 16 55 35 95 19 39 35 75 35
80 0 4 9 16 20 26 18 16 20 16 20 2 0 -10 3 -17 7 -17 3 0 15 7 25 17 21 19
23 8 3 -27 -8 -14 -14 -37 -15 -51 0 -15 -7 -46 -15 -69 -16 -46 -14 -60 8
-41 8 6 17 37 21 68 8 67 40 127 92 171 21 18 38 31 40 29 1 -1 -4 -29 -12
-62 -7 -33 -14 -64 -14 -69 0 -19 18 9 30 47 11 35 19 41 126 92 63 30 120 55
127 55 7 0 37 12 67 26 30 14 65 23 78 21 28 -5 114 12 108 22 -3 4 8 6 23 3
16 -2 38 1 50 7 21 12 31 -2 11 -14 -19 -12 -11 -26 9 -16 20 11 31 -2 31 -39
0 -19 17 -36 26 -27 2 2 0 16 -5 31 -9 21 -8 26 5 26 11 0 14 5 9 18 -25 61
-36 322 -14 322 5 0 9 -5 9 -12 0 -6 2 -9 5 -6 3 2 -11 49 -31 104 -35 95 -49
153 -74 294 -14 80 -74 296 -102 370 -52 134 -144 257 -258 348 -57 45 -159
105 -174 102 0 0 -13 -8 -28 -17z m18 -85 c-7 -13 -16 -35 -20 -50 -6 -28 -20
-36 -31 -18 -3 6 -2 10 4 10 5 0 6 11 2 27 -6 22 -3 30 13 39 36 21 48 17 32
-8z m-76 -38 c0 -11 -4 -20 -10 -20 -5 0 -10 9 -10 20 0 11 5 20 10 20 6 0 10
-9 10 -20z m-260 -75 c-24 -25 -48 -45 -53 -45 -15 0 24 56 51 72 47 28 47 19
2 -27z m30 -24 c-12 -23 -29 -35 -37 -27 -7 7 26 46 39 46 5 0 4 -9 -2 -19z
m56 -36 c-22 -17 -36 -19 -36 -7 0 14 12 22 34 22 21 -1 21 -1 2 -15z m194 2
c58 -47 120 -154 134 -232 4 -22 18 -58 31 -81 26 -45 65 -217 65 -286 0 -44
-24 -108 -60 -158 -11 -16 -17 -35 -14 -44 4 -9 0 -44 -7 -77 -11 -48 -22 -69
-56 -103 -27 -28 -39 -46 -32 -53 6 -6 3 -17 -9 -31 -11 -12 -22 -19 -26 -15
-3 3 -6 1 -6 -5 0 -13 -47 -16 -74 -6 -9 3 -13 10 -10 15 3 5 -1 9 -8 9 -23 1
24 30 48 30 13 0 26 5 29 10 3 6 -4 10 -18 10 -75 0 -106 22 -71 51 14 12 14
14 -6 21 -26 9 -17 28 13 28 32 0 67 11 67 20 0 5 -15 4 -34 -1 -22 -6 -57 -6
-96 0 -52 9 -70 17 -119 60 -90 78 -139 135 -150 177 -17 61 -14 281 5 345 25
84 88 156 197 227 32 20 77 51 100 69 44 33 82 40 107 20z m-536 -773 c8 -20
-14 -105 -25 -98 -17 10 -7 114 11 114 4 0 11 -7 14 -16z m-44 -73 c0 -6 -4
-13 -10 -16 -5 -3 -10 1 -10 9 0 9 5 16 10 16 6 0 10 -4 10 -9z m-30 -101 c0
-5 -2 -10 -4 -10 -3 0 -8 5 -11 10 -3 6 -1 10 4 10 6 0 11 -4 11 -10z m60 -66
c0 -8 -4 -12 -10 -9 -5 3 -10 10 -10 16 0 5 5 9 10 9 6 0 10 -7 10 -16z m-140
-13 c0 -10 -42 -23 -49 -15 -7 6 20 24 37 24 6 0 12 -4 12 -9z m136 -136 c-3
-9 -10 -13 -16 -10 -12 7 -13 48 -3 59 11 11 27 -30 19 -49z m577 -55 c-19
-39 -48 -79 -64 -91 -38 -27 -39 -5 -1 44 15 20 40 54 55 76 44 63 49 48 10
-29z m-504 -15 c21 -37 18 -70 -6 -61 -11 5 -13 0 -8 -17 4 -15 4 -18 -3 -8
-10 14 -36 6 -27 -9 3 -4 -2 -10 -10 -13 -11 -5 -12 -1 -5 19 13 33 12 44 -1
22 -15 -27 -30 -22 -23 7 4 15 2 25 -5 25 -25 0 -8 31 27 49 20 11 38 20 39
21 0 0 10 -16 22 -35z m-150 -70 c0 -5 -6 -1 -14 9 -8 11 -15 27 -15 35 1 17
29 -26 29 -44z m-33 -62 c-10 -10 -19 5 -10 18 6 11 8 11 12 0 2 -7 1 -15 -2
-18z m585 -4 c-13 -11 -27 -17 -30 -13 -3 3 5 14 18 25 13 11 27 17 30 13 3
-3 -5 -14 -18 -25z m171 -1 c-7 -7 -12 -8 -12 -2 0 14 12 26 19 19 2 -3 -1
-11 -7 -17z m-767 -32 c0 -13 -3 -22 -7 -20 -3 2 -8 -2 -11 -8 -2 -7 -4 2 -3
19 1 38 21 46 21 9z m45 -2 c0 -9 -5 -14 -12 -12 -18 6 -21 28 -4 28 9 0 16
-7 16 -16z m310 -29 c0 -8 -7 -15 -15 -15 -8 0 -15 7 -15 15 0 8 7 15 15 15 8
0 15 -7 15 -15z m-292 -14 c3 -8 -1 -12 -9 -9 -7 2 -15 10 -17 17 -3 8 1 12 9
9 7 -2 15 -10 17 -17z m-48 -16 c0 -8 -4 -15 -9 -15 -5 0 -11 7 -15 15 -3 9 0
15 9 15 8 0 15 -7 15 -15z m309 -185 l0 -25 -10 24 c-5 14 -15 21 -23 18 -8
-3 -20 1 -26 8 -13 15 -12 16 30 28 17 5 29 -16 29 -53z m10 -73 c0 -21 -1
-21 -9 -2 -12 28 -12 37 0 30 6 -3 10 -16 9 -28z"/>
<path d="M2200 2700 c0 -5 11 -10 25 -10 14 0 25 5 25 10 0 6 -11 10 -25 10
-14 0 -25 -4 -25 -10z"/>
<path d="M2489 2641 c-13 -11 -20 -23 -16 -27 4 -5 11 -4 15 2 4 5 33 9 65 9
64 -1 82 10 42 25 -40 15 -80 12 -106 -9z"/>
<path d="M2220 2632 c-8 -3 -21 -9 -28 -15 -11 -9 -11 -12 5 -18 26 -11 113
-11 113 0 0 21 -59 43 -90 33z"/>
<path d="M2315 2410 c3 -5 10 -10 16 -10 5 0 9 5 9 10 0 6 -7 10 -16 10 -8 0
-12 -4 -9 -10z"/>
<path d="M2534 2335 c-9 -22 1 -29 15 -11 8 10 9 16 1 21 -5 3 -13 -1 -16 -10z"/>
<path d="M2270 2325 c0 -15 47 -55 64 -55 16 0 17 3 8 12 -7 7 -12 20 -12 30
0 13 -8 18 -30 18 -16 0 -30 -2 -30 -5z"/>
<path d="M1971 1834 c0 -11 3 -14 6 -6 3 7 2 16 -1 19 -3 4 -6 -2 -5 -13z"/>
<path d="M2035 1720 c-3 -6 1 -7 9 -4 18 7 21 14 7 14 -6 0 -13 -4 -16 -10z"/>
<path d="M2195 3130 c-3 -6 1 -7 9 -4 18 7 21 14 7 14 -6 0 -13 -4 -16 -10z"/>
<path d="M1450 3110 c0 -5 5 -10 10 -10 6 0 10 5 10 10 0 6 -4 10 -10 10 -5 0
-10 -4 -10 -10z"/>
<path d="M3483 3065 c-30 -21 -32 -80 -4 -95 23 -12 290 -13 309 -1 9 5 12 25
10 57 l-3 49 -145 3 c-120 2 -149 0 -167 -13z"/>
<path d="M1804 2840 c-12 -5 -25 -13 -29 -19 -8 -15 21 -14 48 1 12 7 40 15
62 19 l40 6 -50 1 c-27 0 -60 -3 -71 -8z"/>
<path d="M1480 2790 c0 -5 20 -10 45 -10 25 0 45 5 45 10 0 6 -20 10 -45 10
-25 0 -45 -4 -45 -10z"/>
<path d="M1770 2781 c-37 -19 -53 -51 -26 -51 9 0 16 -4 16 -10 0 -5 9 -10 20
-10 13 0 18 5 14 15 -4 10 0 15 14 15 29 0 53 11 47 20 -3 5 10 6 30 3 39 -6
48 9 16 27 -31 16 -93 12 -131 -9z"/>
<path d="M1458 2738 c-32 -11 -58 -23 -58 -28 0 -4 25 -8 55 -8 41 0 55 3 55
14 0 20 17 18 29 -3 8 -14 14 -16 27 -7 27 16 28 32 2 39 -46 13 -54 13 -110
-7z"/>
<path d="M1840 2461 c-8 -3 -15 -14 -15 -24 0 -13 -13 -23 -40 -33 -33 -11
-153 -32 -198 -35 -7 0 -3 -4 8 -8 21 -8 99 -7 175 3 35 4 52 14 78 43 17 20
32 40 32 44 0 11 -23 17 -40 10z"/>
<path d="M1500 2405 c0 -5 56 -35 66 -35 3 0 1 6 -5 13 -6 8 -8 17 -4 20 3 4
-8 7 -25 7 -18 0 -32 -2 -32 -5z"/>
<path d="M845 2280 c-39 -25 -65 -75 -64 -120 l1 -35 7 31 c12 47 50 109 79
127 15 9 23 17 17 17 -5 0 -23 -9 -40 -20z"/>
<path d="M1386 2045 c4 -8 11 -15 16 -15 6 0 5 6 -2 15 -7 8 -14 15 -16 15 -2
0 -1 -7 2 -15z"/>
<path d="M1410 2006 c0 -2 7 -9 15 -16 13 -11 14 -10 9 4 -5 14 -24 23 -24 12z"/>
<path d="M1170 1761 c6 -12 18 -21 26 -21 19 0 10 16 -17 31 -19 10 -20 9 -9
-10z"/>
<path d="M1230 1762 c0 -4 13 -19 29 -34 16 -16 32 -43 36 -64 3 -21 17 -51
29 -68 13 -17 28 -45 35 -63 13 -31 57 -70 68 -59 7 6 -16 74 -28 81 -5 4 -9
1 -9 -5 0 -6 -5 -8 -10 -5 -6 4 -8 11 -4 16 3 5 -2 31 -11 58 -19 59 -135 182
-135 143z"/>
<path d="M1210 1710 c0 -5 5 -10 11 -10 5 0 7 5 4 10 -3 6 -8 10 -11 10 -2 0
-4 -4 -4 -10z"/>
<path d="M1160 1673 c1 -14 27 -43 38 -43 6 0 9 6 6 13 -5 14 -44 41 -44 30z"/>
<path d="M1247 1646 c10 -13 19 -23 21 -21 5 5 -22 45 -31 45 -4 0 0 -11 10
-24z"/>
<path d="M1100 1608 c0 -19 2 -20 10 -8 13 19 13 30 0 30 -5 0 -10 -10 -10
-22z"/>
<path d="M1210 1600 c0 -6 7 -10 15 -10 8 0 15 2 15 4 0 2 -7 6 -15 10 -8 3
-15 1 -15 -4z"/>
<path d="M1041 1553 c-7 -14 -8 -30 -4 -34 12 -12 63 -22 63 -13 0 5 3 18 6
30 4 15 -1 23 -21 32 -33 15 -30 16 -44 -15z"/>
<path d="M1234 1562 c-18 -12 12 -72 36 -72 11 0 20 6 20 14 0 22 -43 67 -56
58z"/>
<path d="M1300 1551 c0 -12 51 -73 57 -68 8 9 -31 77 -44 77 -7 0 -13 -4 -13
-9z"/>
<path d="M1135 1520 c-9 -17 -14 -37 -12 -43 3 -7 10 0 16 16 16 41 34 34 26
-10 -5 -31 -2 -40 15 -51 23 -14 23 -17 9 47 -14 68 -33 82 -54 41z"/>
<path d="M1200 1518 c0 -7 5 -20 10 -28 8 -12 10 -11 10 7 0 12 -4 25 -10 28
-5 3 -10 0 -10 -7z"/>
<path d="M1034 1475 c11 -8 25 -15 30 -15 6 0 2 7 -8 15 -11 8 -25 15 -30 15
-6 0 -2 -7 8 -15z"/>
<path d="M1263 1466 c4 -14 47 -21 47 -8 0 5 -11 12 -25 15 -16 3 -24 0 -22
-7z"/>
<path d="M957 1453 c-4 -3 -7 -16 -6 -27 0 -19 1 -19 10 3 10 24 8 36 -4 24z"/>
<path d="M1429 1445 c4 -5 8 -21 9 -35 l1 -25 -19 23 c-25 31 -42 28 -34 -5
17 -80 26 -93 55 -86 26 7 18 28 -10 27 -11 0 -21 3 -21 8 0 4 6 8 14 8 8 0
17 6 20 13 3 8 11 5 25 -11 11 -13 25 -21 30 -18 14 9 25 -13 31 -64 5 -44 6
-45 44 -48 28 -2 40 -9 43 -23 5 -18 23 -27 23 -11 0 7 -76 112 -89 122 -3 3
-12 16 -20 30 -29 53 -77 108 -93 107 -10 -1 -14 -5 -9 -12z"/>
<path d="M994 1417 c-5 -23 -2 -34 12 -44 26 -19 41 -16 48 10 10 38 7 45 -23
55 -28 10 -30 9 -37 -21z"/>
<path d="M1140 1417 c0 -18 40 -41 52 -29 6 6 1 15 -13 26 -28 19 -39 20 -39
3z"/>
<path d="M1285 1398 c10 -44 13 -48 36 -48 23 0 24 11 4 50 -22 43 -49 40 -40
-2z"/>
<path d="M1345 1408 c11 -36 22 -41 17 -8 -2 16 -9 30 -14 30 -5 0 -6 -10 -3
-22z"/>
<path d="M1245 1390 c6 -39 25 -66 25 -34 -1 10 -8 30 -16 44 l-15 25 6 -35z"/>
<path d="M1087 1386 c-4 -10 -7 -25 -6 -34 0 -11 4 -9 10 7 5 13 8 29 6 35 -2
5 -6 2 -10 -8z"/>
<path d="M1114 1367 c-10 -28 0 -72 18 -75 12 -2 23 8 35 32 19 40 18 42 -19
51 -20 5 -29 3 -34 -8z"/>
<path d="M1221 1364 c0 -11 3 -14 6 -6 3 7 2 16 -1 19 -3 4 -6 -2 -5 -13z"/>
<path d="M980 1344 c0 -8 32 -33 43 -34 14 0 7 28 -9 34 -20 8 -34 8 -34 0z"/>
<path d="M832 1313 c2 -21 9 -29 28 -31 15 -2 20 0 13 5 -6 5 -11 17 -10 28 1
11 -5 21 -16 23 -15 3 -18 -2 -15 -25z"/>
<path d="M1193 1328 c-16 -20 -26 -58 -15 -58 11 0 37 58 30 66 -3 2 -10 -1
-15 -8z"/>
<path d="M1313 1318 c2 -7 11 -11 18 -9 8 2 19 4 26 4 24 1 1 17 -23 17 -16 0
-24 -5 -21 -12z"/>
<path d="M920 1290 c0 -16 2 -30 4 -30 2 0 6 14 8 30 3 17 1 30 -4 30 -4 0 -8
-13 -8 -30z"/>
<path d="M950 1291 c-17 -33 -12 -57 15 -69 34 -16 32 -17 45 24 11 31 10 37
-7 49 -25 20 -40 18 -53 -4z"/>
<path d="M1222 1290 c-14 -23 -16 -50 -3 -50 4 0 21 -12 36 -27 l28 -28 -8 33
c-6 28 -33 92 -38 92 -1 0 -8 -9 -15 -20z"/>
<path d="M1440 1300 c-12 -7 -11 -14 5 -44 19 -35 26 -41 37 -31 5 6 -13 70
-23 79 -2 3 -11 1 -19 -4z"/>
<path d="M1490 1283 c0 -11 6 -27 13 -38 13 -16 14 -15 9 14 -5 35 -22 53 -22
24z"/>
<path d="M1100 1281 c0 -6 5 -13 10 -16 15 -10 12 -23 -6 -21 -8 0 -21 -13
-29 -31 -14 -32 -13 -33 13 -47 35 -17 71 -4 72 27 0 14 -19 7 -24 -10 -3 -10
-4 5 -2 34 3 48 -6 73 -26 73 -4 0 -8 -4 -8 -9z"/>
<path d="M1320 1271 c0 -11 4 -31 9 -44 8 -20 15 -24 36 -19 32 6 39 20 26 55
-8 21 -17 27 -41 27 -23 0 -30 -4 -30 -19z"/>
<path d="M1284 1250 c3 -19 11 -39 17 -45 8 -7 9 0 4 25 -4 19 -12 40 -17 45
-7 7 -9 -1 -4 -25z"/>
<path d="M1041 1252 c-7 -13 -10 -31 -8 -40 3 -13 7 -10 16 12 15 37 9 59 -8
28z"/>
<path d="M1155 1240 c-3 -5 -1 -10 4 -10 6 0 11 5 11 10 0 6 -2 10 -4 10 -3 0
-8 -4 -11 -10z"/>
<path d="M838 1233 c7 -3 16 -2 19 1 4 3 -2 6 -13 5 -11 0 -14 -3 -6 -6z"/>
<path d="M1190 1215 c0 -16 35 -38 52 -33 7 3 1 14 -12 26 -28 26 -40 28 -40
7z"/>
<path d="M1550 1206 c0 -9 7 -16 15 -16 8 0 12 -6 9 -14 -7 -19 21 -72 42 -80
13 -5 15 -1 12 19 -3 14 -1 25 3 25 5 0 9 7 9 15 0 8 -4 15 -10 15 -5 0 -10
-5 -10 -12 0 -23 -23 9 -24 34 -1 27 -46 41 -46 14z"/>
<path d="M670 1180 c0 -22 5 -30 18 -30 13 0 14 2 3 9 -8 5 -12 18 -8 30 3 12
1 21 -4 21 -5 0 -9 -13 -9 -30z"/>
<path d="M942 1150 c-2 -67 13 -82 24 -22 4 20 11 42 16 49 6 8 3 15 -11 22
-11 6 -21 11 -23 11 -2 0 -4 -27 -6 -60z"/>
<path d="M1472 1199 c2 -7 10 -15 17 -17 8 -3 12 1 9 9 -2 7 -10 15 -17 17 -8
3 -12 -1 -9 -9z"/>
<path d="M810 1170 c0 -23 6 -33 23 -39 19 -7 23 -5 31 20 10 34 10 34 -26 43
-26 6 -28 4 -28 -24z"/>
<path d="M1351 1186 c-7 -9 -8 -17 -2 -20 14 -9 63 12 56 24 -9 15 -41 12 -54
-4z"/>
<path d="M1165 1153 c-9 -21 -19 -73 -22 -116 -3 -43 -10 -80 -15 -83 -4 -3
-8 -13 -8 -22 0 -10 9 -4 25 18 14 19 25 42 25 51 0 23 19 67 42 98 23 30 23
60 1 77 -27 20 -31 18 -48 -23z"/>
<path d="M1270 1155 c0 -8 5 -15 10 -15 6 0 10 7 10 15 0 8 -4 15 -10 15 -5 0
-10 -7 -10 -15z"/>
<path d="M1501 1161 c-23 -15 -1 -77 25 -73 10 2 20 5 22 6 2 3 -27 76 -31 76
-1 0 -8 -4 -16 -9z"/>
<path d="M1447 1154 c-8 -8 2 -55 14 -68 11 -13 12 44 1 62 -5 7 -11 9 -15 6z"/>
<path d="M1655 1140 c-5 -17 -2 -27 12 -39 10 -9 32 -44 48 -78 17 -37 33 -60
39 -56 6 4 4 -1 -4 -11 -13 -16 -12 -20 3 -31 11 -8 14 -14 7 -17 -18 -6 7
-88 25 -88 19 0 21 80 3 98 -9 9 -9 12 0 12 18 0 33 -37 26 -64 -3 -13 -1 -27
5 -30 6 -4 11 0 11 8 0 9 4 16 9 16 5 0 9 -45 9 -99 0 -108 5 -129 27 -111 22
19 34 3 28 -37 -4 -26 -3 -34 5 -29 8 4 10 2 6 -7 -3 -8 2 -17 12 -21 16 -6
16 -8 -2 -22 -14 -11 -16 -17 -6 -21 10 -4 9 -8 -5 -18 -15 -11 -18 -26 -16
-94 1 -45 9 -101 17 -125 16 -48 24 -171 12 -199 -5 -9 -5 -29 -2 -43 5 -20
12 -25 34 -22 23 3 27 8 30 41 2 25 -1 37 -10 37 -10 0 -10 2 1 9 17 11 4 34
-15 27 -8 -3 -14 -1 -14 4 0 6 7 10 15 10 17 0 12 36 -8 75 -6 11 -10 28 -8
38 1 9 -3 17 -10 17 -9 0 -8 4 1 15 18 21 4 85 -18 86 -12 0 -10 3 7 10 14 6
21 15 17 24 -3 8 -1 17 3 19 15 9 23 107 11 122 -7 7 -10 19 -8 26 3 7 13 -4
23 -25 13 -27 16 -49 11 -80 -3 -23 -3 -37 1 -32 5 6 14 11 21 13 15 3 29 -27
16 -37 -32 -22 -39 -144 -10 -163 8 -5 7 -8 -1 -8 -14 0 -17 -31 -7 -68 4 -14
12 -21 20 -18 8 3 14 1 14 -4 0 -6 -4 -10 -9 -10 -5 0 -10 -15 -9 -33 0 -17
-4 -47 -8 -66 -5 -24 -3 -32 5 -27 6 4 11 22 11 39 0 24 3 28 10 17 5 -8 10
-25 10 -37 0 -13 5 -23 11 -23 7 0 9 10 5 28 -3 15 -10 64 -15 109 -6 46 -12
87 -16 92 -7 13 15 101 25 101 5 0 11 -8 13 -18 3 -12 5 -9 6 8 2 25 2 25 11
3 9 -22 7 -47 -6 -105 -3 -15 -3 -36 2 -45 11 -25 15 -52 14 -95 -1 -62 34
-106 43 -55 4 22 4 22 15 -3 l11 -25 1 30 c0 25 2 27 11 12 5 -9 7 -22 4 -27
-3 -6 -2 -10 4 -10 5 0 12 6 14 13 4 10 6 10 6 0 1 -9 25 -13 86 -13 l85 0 15
36 c21 51 18 66 -5 24 -23 -43 -25 -36 -5 20 19 54 19 73 -1 37 -22 -41 -27
-28 -9 23 19 54 18 76 -1 31 -18 -39 -32 -34 -16 6 6 15 14 44 17 63 7 33 6
34 -9 15 -15 -20 -15 -20 -16 2 0 12 4 33 10 47 6 17 6 26 0 26 -6 0 -10 -7
-10 -15 0 -8 -4 -15 -10 -15 -13 0 -13 2 11 95 24 97 24 95 44 220 22 133 25
138 18 25 -6 -100 0 -119 11 -35 18 127 24 141 21 45 -4 -88 -3 -91 6 -40 26
143 29 149 24 70 -2 -41 -7 -91 -10 -110 -5 -30 -4 -32 5 -11 6 13 14 60 19
105 5 44 9 68 10 51 1 -16 6 -39 11 -50 7 -15 9 -8 11 30 1 28 3 39 6 25 10
-65 14 -75 24 -59 8 10 9 2 6 -28 -3 -24 -1 -43 3 -43 5 0 11 17 13 38 3 33 4
32 6 -13 3 -45 5 -40 17 45 19 139 18 180 -4 180 -10 0 -23 -5 -30 -12 -7 -7
-12 -9 -12 -5 0 4 -24 -2 -52 -13 -29 -11 -71 -22 -93 -26 -46 -7 -50 -8 -90
-17 -69 -17 -275 -44 -311 -42 -21 1 -52 7 -67 14 -16 6 -33 9 -37 6 -5 -3 -8
3 -7 14 1 23 -33 101 -45 101 -4 0 -8 6 -8 13 0 7 -21 43 -47 81 -27 38 -53
77 -59 87 -6 10 -18 27 -26 36 -9 10 -22 31 -30 47 l-15 30 -8 -24z m248 -448
c-6 -26 -36 -31 -31 -4 2 9 10 16 16 15 7 -2 12 2 12 9 0 6 2 9 5 7 2 -3 2
-15 -2 -27z m77 9 c0 -22 -21 -62 -29 -57 -5 4 -12 0 -14 -6 -3 -7 -6 -3 -6
10 -1 13 5 22 13 22 8 0 18 4 21 10 3 6 -1 7 -9 4 -16 -6 -22 7 -9 19 10 10
33 8 33 -2z m395 -93 c-6 -74 -51 -255 -62 -245 -2 3 7 51 21 108 14 57 28
130 31 162 11 86 18 68 10 -25z m-28 30 c-3 -7 -5 -2 -5 12 0 14 2 19 5 13 2
-7 2 -19 0 -25z m-17 -95 c-10 -16 -11 -15 -6 7 3 14 7 36 7 50 2 19 3 18 6
-7 2 -18 -1 -41 -7 -50z m-266 -104 c-10 -16 -24 -9 -24 12 0 18 2 19 15 9 8
-7 12 -16 9 -21z m53 9 c-3 -8 -6 -5 -6 6 -1 11 2 17 5 13 3 -3 4 -12 1 -19z
m20 -50 c-3 -7 -5 -2 -5 12 0 14 2 19 5 13 2 -7 2 -19 0 -25z m-61 -5 c-10
-10 -19 5 -10 18 6 11 8 11 12 0 2 -7 1 -15 -2 -18z m94 -105 c0 -52 -13 -41
-17 13 -2 24 1 38 7 34 6 -3 10 -25 10 -47z m-33 -128 c0 -56 -12 -67 -20 -17
-4 26 6 67 16 67 2 0 3 -22 4 -50z m43 30 c7 -14 8 -26 0 -39 -5 -11 -10 -32
-10 -47 0 -48 -10 -19 -16 45 -6 63 5 80 26 41z m17 -142 c-3 -8 -6 -5 -6 6
-1 11 2 17 5 13 3 -3 4 -12 1 -19z"/>
<path d="M1050 1142 c0 -12 49 -37 57 -29 8 8 -26 36 -44 37 -7 0 -13 -4 -13
-8z"/>
<path d="M1355 1139 c-4 -6 -4 -26 -1 -45 6 -30 10 -34 31 -30 38 7 41 12 37
50 -4 32 -7 36 -33 36 -15 0 -31 -5 -34 -11z"/>
<path d="M2126 1124 c-3 -9 -6 -25 -6 -37 1 -21 1 -21 15 3 8 14 14 31 15 38
0 17 -17 15 -24 -4z"/>
<path d="M980 1100 c-8 -18 -20 -30 -31 -30 -25 0 -24 -16 2 -23 15 -4 25 2
40 26 10 18 19 38 19 45 0 23 -17 12 -30 -18z"/>
<path d="M1245 1120 c-3 -5 -1 -10 4 -10 6 0 11 5 11 10 0 6 -2 10 -4 10 -3 0
-8 -4 -11 -10z"/>
<path d="M1271 1090 c-11 -24 -21 -52 -21 -62 0 -10 -5 -18 -11 -18 -6 0 -3
-7 6 -16 9 -9 24 -14 36 -11 17 5 18 3 7 -11 -7 -9 -13 -18 -14 -20 -1 -1 -13
2 -28 8 -23 9 -28 7 -38 -15 -9 -20 -8 -28 5 -43 23 -25 21 -35 -2 -22 -26 13
-31 13 -31 -5 0 -7 -6 -18 -14 -22 -20 -12 -36 -48 -36 -85 0 -23 -8 -39 -27
-55 -14 -13 -23 -23 -19 -23 4 0 -5 -20 -19 -45 -13 -25 -24 -53 -23 -63 3
-40 -3 -62 -17 -62 -8 0 -15 7 -15 15 0 8 -7 15 -15 15 -8 0 -15 5 -15 10 0 6
6 10 13 10 6 0 23 24 36 53 14 28 35 65 48 80 13 16 23 37 23 47 0 10 6 20 13
23 10 4 10 7 0 18 -7 7 -13 16 -13 21 0 4 6 5 13 3 20 -8 37 41 24 70 -7 14
-17 25 -23 25 -13 0 -45 -60 -38 -72 3 -4 0 -8 -5 -8 -6 0 -11 -7 -11 -16 0
-8 -12 -31 -26 -50 -14 -18 -24 -40 -21 -48 3 -8 0 -17 -8 -19 -7 -3 -16 -24
-20 -45 -5 -32 -14 -46 -46 -66 -38 -25 -39 -27 -36 -79 2 -32 -2 -61 -11 -75
-9 -13 -17 -59 -19 -107 -5 -81 -4 -85 16 -85 12 0 21 6 22 13 1 6 2 26 4 42
1 17 7 53 13 80 5 28 9 66 7 85 -2 20 3 47 11 60 14 23 14 23 9 3 -5 -17 -2
-23 9 -23 17 0 22 -15 7 -24 -5 -4 -12 0 -14 6 -4 8 -6 7 -6 -3 -1 -9 6 -20
15 -23 9 -3 13 -13 10 -23 -2 -10 -7 -47 -11 -83 -7 -74 -24 -150 -37 -167 -6
-7 -20 -11 -31 -10 -19 2 -22 -4 -25 -40 -3 -42 -2 -43 27 -43 25 0 30 5 36
30 4 16 11 32 16 35 5 4 9 15 9 25 0 22 15 34 31 24 8 -5 6 -10 -5 -16 -9 -5
-16 -17 -16 -26 0 -10 -7 -28 -16 -40 -14 -21 -14 -22 8 -22 20 -1 21 -2 7
-13 -22 -17 -14 -77 11 -77 13 0 19 10 22 35 2 20 2 38 -1 41 -9 9 -11 84 -2
84 5 0 14 -13 20 -30 7 -21 17 -30 32 -30 15 0 19 -4 15 -16 -3 -8 -2 -24 4
-33 11 -21 4 -32 -14 -25 -8 3 -11 15 -8 30 2 13 0 24 -6 24 -13 0 -19 -27
-14 -57 4 -21 10 -23 63 -23 l59 0 -4 55 c-3 30 -1 55 3 55 9 0 21 -49 21 -86
0 -15 6 -24 16 -24 13 0 15 7 10 38 -4 20 -9 45 -12 55 -3 9 -1 17 5 17 6 0
11 -8 11 -18 0 -10 3 -22 7 -25 3 -4 8 -19 9 -33 4 -34 6 -36 48 -32 l36 3
-15 29 c-8 15 -15 35 -15 42 0 8 -11 15 -27 15 -25 1 -24 3 10 12 40 11 45 23
22 53 -14 18 -14 18 -15 -11 l0 -30 -18 23 c-12 16 -19 44 -20 89 -2 36 -6 71
-9 76 -3 6 -7 25 -9 43 -2 25 1 34 11 34 9 0 15 -10 15 -24 0 -14 5 -28 10
-31 11 -7 13 5 10 42 -1 23 14 31 25 14 3 -5 7 -37 9 -71 4 -73 15 -88 53 -74
34 12 36 35 8 121 -19 60 -22 63 -52 63 -17 0 -35 -5 -38 -10 -9 -15 -36 8
-33 28 2 8 -3 17 -10 19 -9 4 -11 -2 -6 -23 5 -20 4 -25 -5 -20 -24 15 -32 56
-16 84 14 26 14 26 15 5 0 -13 6 -23 14 -23 10 0 14 22 14 97 0 54 3 125 6
158 6 59 34 160 42 152 3 -2 -1 -17 -7 -33 -9 -23 -21 -159 -20 -219 1 -31 7
-55 14 -55 4 0 18 0 32 0 19 0 25 5 25 23 1 12 2 48 4 79 2 45 -1 58 -13 61
-13 4 -13 5 2 6 15 1 17 10 16 66 -1 50 -5 65 -18 68 -15 4 -15 5 0 6 23 1 29
22 19 66 -5 21 -6 44 -2 53 4 12 1 14 -14 8 -42 -17 -49 -17 -30 -2 11 9 23
16 28 16 13 0 9 42 -6 69 l-14 25 -21 -44z m-51 -251 c0 -4 -7 -6 -15 -3 -8 4
-15 10 -15 15 0 4 7 6 15 3 8 -4 15 -10 15 -15z m-10 -94 c-6 -7 -9 -19 -8
-26 2 -7 -2 -13 -9 -14 -18 0 -42 -37 -43 -62 0 -13 -4 -23 -10 -23 -5 0 -10
6 -10 12 0 17 52 121 64 130 16 11 28 -2 16 -17z m-86 -83 c-4 -18 -13 -32
-20 -32 -8 0 -14 -7 -14 -15 0 -8 -7 -15 -15 -15 -9 0 -12 6 -9 15 4 8 10 15
15 15 5 0 9 5 9 11 0 11 33 59 38 55 1 -2 -1 -17 -4 -34z m80 -69 c-1 -16 -3
-35 -3 -43 -1 -12 -4 -11 -18 2 -13 14 -14 20 -4 32 9 10 9 16 1 21 -8 5 -8
11 -2 17 6 6 8 18 6 27 -3 9 1 6 8 -6 8 -13 13 -35 12 -50z m-104 -102 c0 -5
3 -18 6 -28 5 -15 4 -16 -6 -3 -9 12 -13 12 -17 2 -5 -12 -54 -42 -69 -42 -3
0 -1 7 6 15 7 8 15 13 19 10 9 -5 41 31 41 45 0 6 5 10 10 10 6 0 10 -4 10 -9z
m-70 -150 c-6 -13 -13 -21 -16 -18 -3 3 1 15 8 26 11 18 11 23 -1 30 -8 5 -10
14 -6 22 14 22 28 -32 15 -60z m97 13 c-9 -9 -28 6 -21 18 4 6 10 6 17 -1 6
-6 8 -13 4 -17z m-47 6 c0 -5 -2 -10 -4 -10 -3 0 -8 5 -11 10 -3 6 -1 10 4 10
6 0 11 -4 11 -10z m10 -39 c0 -6 -4 -13 -10 -16 -5 -3 -10 1 -10 9 0 9 5 16
10 16 6 0 10 -4 10 -9z m48 -2 c-2 -6 -8 -10 -13 -10 -5 0 -11 4 -13 10 -2 6
4 11 13 11 9 0 15 -5 13 -11z m41 -172 c0 -18 -3 -16 -15 11 -14 32 -34 44
-34 20 0 -21 -27 14 -34 45 -8 34 11 36 24 2 13 -35 21 -31 14 8 -5 29 -3 28
20 -16 14 -27 26 -58 25 -70z m-139 43 c0 -5 -2 -10 -4 -10 -3 0 -8 5 -11 10
-3 6 -1 10 4 10 6 0 11 -4 11 -10z"/>
<path d="M1321 1114 c0 -11 3 -14 6 -6 3 7 2 16 -1 19 -3 4 -6 -2 -5 -13z"/>
<path d="M1022 1085 c-7 -14 -12 -35 -12 -45 0 -11 -4 -20 -10 -20 -5 0 -10
-9 -10 -20 0 -28 -18 -25 -22 4 -3 20 -6 22 -25 15 -17 -6 -23 -16 -23 -39 0
-30 9 -39 47 -44 11 -2 20 -14 23 -32 7 -39 22 -35 39 10 12 33 12 39 0 47
-11 7 -9 9 9 9 27 0 29 16 2 32 -27 17 -26 32 1 17 23 -12 29 -7 47 33 10 24
9 29 -11 43 -30 21 -42 19 -55 -10z"/>
<path d="M1225 1080 c-3 -5 -1 -10 4 -10 6 0 11 5 11 10 0 6 -2 10 -4 10 -3 0
-8 -4 -11 -10z"/>
<path d="M1612 1068 c3 -7 13 -15 22 -16 12 -3 17 1 14 10 -3 7 -13 15 -22 16
-12 3 -17 -1 -14 -10z"/>
<path d="M1510 1055 c0 -9 9 -15 25 -15 16 0 25 6 25 15 0 9 -9 15 -25 15 -16
0 -25 -6 -25 -15z"/>
<path d="M1111 1032 c-8 -18 -11 -35 -8 -38 8 -9 29 35 25 54 -2 12 -8 7 -17
-16z"/>
<path d="M1460 1050 c0 -5 5 -10 10 -10 6 0 10 5 10 10 0 6 -4 10 -10 10 -5 0
-10 -4 -10 -10z"/>
<path d="M776 1024 c-8 -31 -2 -39 35 -48 24 -5 27 -3 32 27 6 41 2 47 -33 47
-22 0 -29 -6 -34 -26z"/>
<path d="M1370 1037 c0 -22 11 -26 36 -15 33 15 30 28 -6 28 -18 0 -30 -5 -30
-13z"/>
<path d="M1632 1032 c-19 -13 5 -72 29 -72 21 0 26 29 9 61 -12 21 -18 23 -38
11z"/>
<path d="M878 1010 c-11 -38 -10 -56 3 -43 6 6 9 23 7 39 l-3 29 -7 -25z"/>
<path d="M1533 1023 c-23 -4 -30 -33 -17 -67 6 -17 59 -23 68 -8 7 11 -13 82
-22 81 -4 -1 -17 -4 -29 -6z"/>
<path d="M1698 993 c5 -21 7 -23 10 -9 2 10 0 22 -6 28 -6 6 -7 0 -4 -19z"/>
<path d="M2151 1004 c0 -11 3 -14 6 -6 3 7 2 16 -1 19 -3 4 -6 -2 -5 -13z"/>
<path d="M1386 1002 c-9 -15 14 -82 28 -82 22 0 34 23 29 58 -4 25 -10 32 -29
32 -12 0 -25 -4 -28 -8z"/>
<path d="M1470 976 c0 -19 5 -38 10 -41 6 -4 10 10 10 34 0 23 -4 41 -10 41
-5 0 -10 -15 -10 -34z"/>
<path d="M1183 988 c-11 -14 -33 -75 -33 -89 0 -5 5 -9 10 -9 6 0 10 9 10 20
0 11 4 20 9 20 5 0 11 8 14 18 2 9 8 25 12 35 8 20 -8 23 -22 5z"/>
<path d="M1600 995 c0 -5 5 -17 10 -25 5 -8 10 -10 10 -5 0 6 -5 17 -10 25 -5
8 -10 11 -10 5z"/>
<path d="M1360 944 c0 -19 4 -33 8 -30 8 5 4 66 -4 66 -2 0 -4 -16 -4 -36z"/>
<path d="M2973 968 c-45 -10 -50 -22 -25 -63 11 -18 12 -16 6 14 -4 20 -2 31
3 28 5 -4 24 -9 41 -12 29 -5 32 -3 32 20 0 14 -3 25 -7 24 -5 -1 -27 -5 -50
-11z"/>
<path d="M3803 973 c-7 -2 -13 -11 -13 -19 0 -15 -35 -55 -42 -48 -3 2 -31 -7
-64 -20 -32 -13 -81 -27 -109 -31 -27 -3 -61 -10 -75 -15 -42 -13 -101 -28
-180 -45 -122 -27 -128 -31 -136 -81 -3 -25 -4 -47 -1 -50 3 -4 36 2 72 11 37
9 81 17 98 17 17 1 42 7 56 15 31 15 51 17 51 3 0 -5 -12 -12 -27 -16 -16 -3
-51 -17 -79 -30 -28 -13 -76 -31 -107 -41 -55 -18 -67 -31 -67 -75 0 -14 8
-18 39 -18 l39 0 5 -102 c5 -83 8 -311 5 -337 0 -3 0 -23 1 -43 l1 -38 78 0
78 0 4 168 c1 92 2 210 2 262 -1 52 3 109 8 125 9 28 16 32 92 49 48 12 110
19 147 18 43 -2 78 3 107 15 l44 18 0 158 c0 86 -3 157 -7 156 -5 0 -14 -3
-20 -6z"/>
<path d="M1080 960 c0 -5 5 -10 10 -10 6 0 10 5 10 10 0 6 -4 10 -10 10 -5 0
-10 -4 -10 -10z"/>
<path d="M770 951 c0 -6 6 -11 14 -11 8 0 23 -3 33 -6 12 -5 15 -4 8 3 -15 16
-55 26 -55 14z"/>
<path d="M3057 953 c-11 -10 -8 -43 3 -43 6 0 10 11 10 25 0 26 -2 29 -13 18z"/>
<path d="M2885 939 c-4 -6 -2 -16 4 -22 6 -6 11 -18 11 -27 0 -9 9 -33 20 -55
11 -22 20 -55 19 -75 l-1 -35 -9 39 c-12 49 -59 158 -74 168 -13 10 -17 10
-34 -1 -11 -7 -11 -12 2 -32 8 -13 20 -42 27 -64 6 -22 18 -53 25 -70 7 -16
15 -47 18 -69 l6 -38 -50 4 c-27 3 -52 8 -56 11 -3 4 -7 35 -8 69 0 35 -7 87
-15 116 -12 45 -16 51 -34 46 -12 -4 -28 -13 -37 -20 -9 -8 -23 -12 -31 -9
-28 11 -40 -18 -28 -66 6 -24 16 -64 22 -89 14 -60 28 -74 28 -28 0 20 5 40
10 43 6 3 10 11 10 18 0 8 -3 8 -12 -1 -21 -21 -27 -13 -23 32 3 36 1 44 -11
39 -22 -8 -16 14 8 32 21 14 24 14 36 -2 6 -9 10 -25 6 -35 -3 -10 0 -18 6
-18 8 0 10 -10 8 -25 -3 -14 -2 -25 2 -25 4 0 12 -18 18 -41 8 -30 7 -39 -1
-36 -7 2 -25 -3 -40 -12 -21 -12 -27 -21 -22 -38 8 -32 -3 -50 -31 -50 -14 -1
-28 -3 -31 -7 -12 -12 -15 -103 -3 -111 8 -5 8 -11 -3 -23 -24 -28 -26 -68 -6
-99 11 -15 19 -35 19 -43 0 -9 -8 -3 -19 13 -21 33 -39 20 -20 -14 8 -15 8
-19 0 -15 -6 4 -13 1 -15 -6 -2 -7 -9 -33 -16 -58 -7 -25 -18 -59 -26 -75 -7
-17 -22 -51 -33 -77 l-20 -47 72 1 c39 1 66 3 59 6 -26 8 -10 21 21 16 29 -5
30 -4 15 9 -24 19 -22 26 5 19 l22 -5 -20 23 -20 23 23 -7 c26 -9 30 8 5 23
-15 9 -13 10 12 11 l30 0 -25 20 -25 20 25 0 c23 1 24 2 7 14 -12 9 -14 16 -8
21 6 3 11 26 11 50 0 33 5 47 19 54 14 8 20 7 24 -3 8 -21 79 -34 138 -25 85
13 77 25 -21 32 -50 4 -103 13 -118 21 -16 8 -35 14 -42 14 -55 -3 -70 2 -70
26 0 35 26 59 50 46 21 -11 170 -26 170 -17 0 3 -17 11 -37 17 -21 7 -58 22
-83 33 -25 11 -55 20 -67 18 -26 -3 -37 12 -28 39 10 31 36 40 81 29 84 -22
302 -54 311 -45 3 3 -8 8 -23 11 -16 4 -72 20 -124 36 -52 16 -110 32 -129 35
-30 6 -33 5 -28 -10 4 -9 3 -15 -2 -11 -13 7 -6 76 9 85 14 8 134 3 200 -10
92 -17 130 -13 162 17 29 28 29 28 7 33 -12 3 -26 15 -30 27 -7 18 -3 26 21
40 17 9 30 23 30 29 0 7 5 14 12 16 19 7 -1 28 -26 28 -13 0 -31 -9 -41 -20
-10 -11 -21 -17 -25 -15 -15 9 -17 -33 -3 -74 11 -33 12 -46 2 -57 -15 -19
-48 -18 -55 1 -5 12 -10 13 -20 4 -11 -9 -14 -5 -14 22 0 29 1 31 13 15 11
-15 12 -8 7 45 -4 35 -14 78 -23 94 -8 17 -18 47 -22 68 -8 40 -19 54 -30 36z
m-111 -144 c4 -16 3 -23 0 -15 -4 8 -13 29 -21 45 -14 27 -14 29 0 15 9 -8 18
-28 21 -45z m-114 -475 c0 -5 -4 -10 -10 -10 -5 0 -10 5 -10 10 0 6 5 10 10
10 6 0 10 -4 10 -10z"/>
<path d="M1652 928 c7 -19 38 -22 38 -4 0 10 -9 16 -21 16 -12 0 -19 -5 -17
-12z"/>
<path d="M1050 904 c-12 -32 -13 -44 -1 -44 5 0 14 14 20 31 13 39 13 39 1 39
-6 0 -15 -12 -20 -26z"/>
<path d="M1537 923 c-17 -4 -21 -25 -4 -24 4 1 18 1 32 1 16 0 25 6 25 15 0
15 -17 17 -53 8z"/>
<path d="M924 905 c22 -17 46 -20 46 -6 0 10 -25 21 -48 21 -15 -1 -14 -3 2
-15z"/>
<path d="M1481 904 c0 -11 3 -14 6 -6 3 7 2 16 -1 19 -3 4 -6 -2 -5 -13z"/>
<path d="M760 876 c0 -24 5 -36 14 -36 8 0 22 -3 31 -6 14 -6 16 0 13 32 -3
34 -6 39 -30 42 -26 3 -28 1 -28 -32z"/>
<path d="M1404 899 c-11 -18 13 -34 31 -19 8 7 15 16 15 21 0 13 -38 11 -46
-2z"/>
<path d="M857 877 c-4 -10 -7 -28 -6 -40 0 -21 1 -21 10 2 5 14 8 32 7 40 -3
13 -5 13 -11 -2z"/>
<path d="M1360 880 c0 -5 5 -10 10 -10 6 0 10 5 10 10 0 6 -4 10 -10 10 -5 0
-10 -4 -10 -10z"/>
<path d="M1664 868 c3 -13 6 -31 6 -40 0 -13 8 -18 26 -18 24 0 26 3 20 31 -3
17 -6 35 -6 40 0 5 -12 9 -26 9 -22 0 -25 -3 -20 -22z"/>
<path d="M1527 873 c-6 -9 10 -73 18 -73 3 0 17 0 31 0 23 0 25 3 22 38 -3 33
-6 37 -35 40 -17 2 -33 -1 -36 -5z"/>
<path d="M1620 853 c0 -16 5 -35 10 -43 7 -11 10 -4 10 28 0 23 -4 42 -10 42
-5 0 -10 -12 -10 -27z"/>
<path d="M1730 864 c0 -10 5 -26 10 -34 8 -11 9 -7 4 15 -8 37 -14 45 -14 19z"/>
<path d="M897 863 c-4 -3 -7 -19 -7 -34 0 -20 6 -28 25 -33 36 -9 45 -1 45 40
0 31 -3 34 -28 34 -16 0 -32 -3 -35 -7z"/>
<path d="M1416 857 c-20 -15 -20 -82 1 -82 6 0 15 -3 19 -7 4 -5 -2 -8 -14 -8
-13 0 -22 -6 -22 -15 0 -16 55 -22 63 -7 7 14 -8 125 -18 129 -6 2 -19 -3 -29
-10z"/>
<path d="M1480 843 c0 -16 5 -35 10 -43 7 -11 10 -4 10 28 0 23 -4 42 -10 42
-5 0 -10 -12 -10 -27z"/>
<path d="M987 826 c-5 -21 -6 -40 -3 -43 9 -10 18 24 14 54 -3 26 -4 25 -11
-11z"/>
<path d="M1360 810 c0 -25 4 -39 10 -35 6 3 10 19 10 35 0 16 -4 32 -10 35 -6
4 -10 -10 -10 -35z"/>
<path d="M1015 809 c-4 -17 -4 -33 -1 -36 3 -4 6 3 6 15 0 11 5 24 10 27 13 8
13 25 1 25 -5 0 -12 -14 -16 -31z"/>
<path d="M770 800 c20 -13 43 -13 35 0 -3 6 -16 10 -28 10 -18 0 -19 -2 -7
-10z"/>
<path d="M1784 783 c3 -16 8 -45 12 -65 8 -50 21 -48 21 2 0 22 -4 40 -9 40
-4 0 -6 11 -2 25 5 19 2 25 -11 25 -13 0 -15 -6 -11 -27z"/>
<path d="M1692 792 c-13 -2 -21 -9 -19 -15 5 -16 57 -16 57 -1 0 17 -10 21
-38 16z"/>
<path d="M1563 782 c-31 -5 -30 -32 1 -32 27 0 44 17 30 29 -5 4 -19 5 -31 3z"/>
<path d="M2680 775 c0 -8 2 -15 4 -15 2 0 6 7 10 15 3 8 1 15 -4 15 -6 0 -10
-7 -10 -15z"/>
<path d="M880 771 c0 -5 14 -14 30 -20 37 -13 41 5 4 19 -31 12 -34 12 -34 1z"/>
<path d="M1630 769 c0 -5 5 -7 10 -4 6 3 10 8 10 11 0 2 -4 4 -10 4 -5 0 -10
-5 -10 -11z"/>
<path d="M1490 760 c0 -5 5 -10 10 -10 6 0 10 5 10 10 0 6 -4 10 -10 10 -5 0
-10 -4 -10 -10z"/>
<path d="M2621 753 c0 -29 38 -112 38 -86 1 12 -3 25 -9 28 -5 3 -10 22 -10
41 0 19 -4 34 -10 34 -5 0 -10 -8 -9 -17z"/>
<path d="M772 728 c2 -18 8 -33 13 -33 6 0 11 15 13 33 3 24 -1 32 -13 32 -12
0 -16 -8 -13 -32z"/>
<path d="M1361 744 c0 -11 3 -14 6 -6 3 7 2 16 -1 19 -3 4 -6 -2 -5 -13z"/>
<path d="M1831 744 c0 -11 3 -14 6 -6 3 7 2 16 -1 19 -3 4 -6 -2 -5 -13z"/>
<path d="M660 740 c0 -5 5 -10 11 -10 5 0 7 5 4 10 -3 6 -8 10 -11 10 -2 0 -4
-4 -4 -10z"/>
<path d="M837 737 c-4 -10 -7 -28 -6 -40 0 -21 1 -21 10 2 5 14 8 32 7 40 -3
13 -5 13 -11 -2z"/>
<path d="M1675 728 c-3 -13 -4 -41 -2 -63 3 -36 6 -40 28 -37 13 2 25 5 26 6
1 1 5 28 9 59 l7 57 -31 0 c-25 0 -33 -5 -37 -22z"/>
<path d="M876 733 c-3 -4 -6 -24 -6 -46 0 -28 -9 -51 -32 -83 -25 -35 -30 -49
-22 -61 17 -27 33 -26 40 1 3 14 21 45 40 68 42 53 46 99 10 116 -13 6 -27 8
-30 5z m19 -83 c3 -5 1 -10 -4 -10 -6 0 -11 5 -11 10 0 6 2 10 4 10 3 0 8 -4
11 -10z"/>
<path d="M1545 732 c-3 -3 -5 -23 -5 -44 0 -38 1 -39 33 -36 30 3 32 5 32 43
0 37 -2 40 -27 41 -15 1 -30 -1 -33 -4z"/>
<path d="M1630 705 c0 -19 5 -35 10 -35 6 0 10 16 10 35 0 19 -4 35 -10 35 -5
0 -10 -16 -10 -35z"/>
<path d="M1760 710 c0 -16 5 -30 10 -30 6 0 10 14 10 30 0 17 -4 30 -10 30 -5
0 -10 -13 -10 -30z"/>
<path d="M1494 715 c-3 -8 -1 -27 4 -42 10 -27 10 -26 11 15 1 43 -5 54 -15
27z"/>
<path d="M2706 715 c-9 -26 -7 -32 5 -12 6 10 9 21 6 23 -2 3 -7 -2 -11 -11z"/>
<path d="M1401 658 c1 -35 -1 -73 -5 -86 -11 -32 0 -70 22 -75 16 -4 16 -5 0
-6 -11 -1 -18 -9 -18 -22 0 -11 5 -17 10 -14 6 3 10 1 10 -4 0 -6 -5 -11 -11
-11 -8 0 -10 -12 -6 -36 8 -45 9 -46 39 -39 24 6 24 8 24 116 0 91 -3 109 -16
109 -12 1 -12 3 3 11 9 5 17 14 17 19 0 5 -8 11 -17 13 -17 4 -17 5 0 6 13 1
17 10 17 41 0 39 -1 40 -36 40 l-35 0 2 -62z m49 -198 c0 -5 -5 -10 -11 -10
-5 0 -7 5 -4 10 3 6 8 10 11 10 2 0 4 -4 4 -10z"/>
<path d="M955 674 c-8 -48 -1 -53 12 -9 6 19 8 37 3 40 -4 3 -11 -11 -15 -31z"/>
<path d="M1350 675 c0 -19 5 -35 10 -35 6 0 10 16 10 35 0 19 -4 35 -10 35 -5
0 -10 -16 -10 -35z"/>
<path d="M1805 660 c-9 -15 4 -30 20 -23 8 3 15 9 15 13 0 12 -29 20 -35 10z"/>
<path d="M1760 650 c0 -5 5 -10 10 -10 6 0 10 5 10 10 0 6 -4 10 -10 10 -5 0
-10 -4 -10 -10z"/>
<path d="M2533 615 c0 -22 2 -30 4 -17 2 12 2 30 0 40 -3 9 -5 -1 -4 -23z"/>
<path d="M1549 638 c-4 -11 -11 -98 -12 -168 -2 -82 -1 -85 22 -88 13 -2 27 0
32 5 5 5 11 54 14 110 l6 102 -28 4 -28 4 28 2 c39 2 36 31 -3 31 -16 0 -30
-1 -31 -2z"/>
<path d="M1635 630 c3 -5 8 -10 11 -10 2 0 4 5 4 10 0 6 -5 10 -11 10 -5 0 -7
-4 -4 -10z"/>
<path d="M2503 605 c0 -22 2 -30 4 -17 2 12 2 30 0 40 -3 9 -5 -1 -4 -23z"/>
<path d="M1496 621 c-4 -5 -2 -12 3 -15 5 -4 12 -2 15 3 4 5 2 12 -3 15 -5 4
-12 2 -15 -3z"/>
<path d="M1793 613 c-7 -19 4 -191 14 -206 4 -6 6 -20 5 -29 -2 -12 3 -18 17
-18 20 0 28 19 14 34 -4 3 -6 29 -4 58 2 43 0 50 -13 45 -9 -4 -16 -3 -16 2 0
5 9 11 20 14 13 3 18 11 14 20 -3 8 -1 18 5 22 12 7 15 65 4 66 -5 0 -19 2
-31 3 -13 2 -26 -3 -29 -11z"/>
<path d="M1874 595 c4 -48 16 -57 16 -12 0 20 -4 38 -10 42 -5 3 -8 -9 -6 -30z"/>
<path d="M2631 614 c0 -11 3 -14 6 -6 3 7 2 16 -1 19 -3 4 -6 -2 -5 -13z"/>
<path d="M1350 610 c0 -5 5 -10 10 -10 6 0 10 5 10 10 0 6 -4 10 -10 10 -5 0
-10 -4 -10 -10z"/>
<path d="M1688 609 c-18 -10 -23 -43 -12 -72 3 -9 14 -12 30 -9 21 4 24 10 24
48 0 46 -9 53 -42 33z"/>
<path d="M1750 585 c0 -19 5 -35 10 -35 6 0 10 16 10 35 0 19 -4 35 -10 35 -5
0 -10 -16 -10 -35z"/>
<path d="M656 593 c-4 -13 -12 -22 -18 -20 -6 1 -13 -4 -15 -10 -3 -9 6 -13
26 -13 32 0 36 9 22 45 -8 19 -8 19 -15 -2z"/>
<path d="M796 594 c-5 -14 -4 -15 9 -4 17 14 19 20 6 20 -5 0 -12 -7 -15 -16z"/>
<path d="M1637 593 c-11 -10 -8 -61 3 -68 6 -4 10 10 10 34 0 42 -2 46 -13 34z"/>
<path d="M882 578 c-15 -15 -16 -72 -2 -63 6 3 10 17 10 31 0 13 5 24 10 24 6
0 10 5 10 10 0 14 -13 13 -28 -2z"/>
<path d="M1496 583 c-9 -10 -7 -63 3 -63 11 0 20 59 11 65 -4 3 -10 2 -14 -2z"/>
<path d="M711 564 c0 -11 3 -14 6 -6 3 7 2 16 -1 19 -3 4 -6 -2 -5 -13z"/>
<path d="M1269 573 c-18 -4 -32 -70 -17 -79 5 -3 6 -14 3 -25 -8 -25 13 -33
50 -19 31 12 25 26 -15 33 l-25 4 26 2 c31 1 41 19 32 61 -5 30 -15 34 -54 23z"/>
<path d="M1350 540 c0 -22 5 -40 10 -40 6 0 10 18 10 40 0 22 -4 40 -10 40 -5
0 -10 -18 -10 -40z"/>
<path d="M1020 559 c0 -5 5 -7 10 -4 6 3 10 8 10 11 0 2 -4 4 -10 4 -5 0 -10
-5 -10 -11z"/>
<path d="M1870 524 c0 -8 5 -12 10 -9 6 3 10 10 10 16 0 5 -4 9 -10 9 -5 0
-10 -7 -10 -16z"/>
<path d="M2401 524 c0 -11 3 -14 6 -6 3 7 2 16 -1 19 -3 4 -6 -2 -5 -13z"/>
<path d="M2462 520 c0 -14 2 -19 5 -12 2 6 2 18 0 25 -3 6 -5 1 -5 -13z"/>
<path d="M2521 514 c0 -11 3 -14 6 -6 3 7 2 16 -1 19 -3 4 -6 -2 -5 -13z"/>
<path d="M1693 513 c-16 -6 -17 -33 -2 -33 19 0 50 21 44 31 -7 10 -22 11 -42
2z"/>
<path d="M2691 511 c-8 -5 -11 -16 -7 -26 8 -21 19 -13 21 15 1 11 1 20 1 20
-1 0 -7 -4 -15 -9z"/>
<path d="M860 484 c0 -8 5 -12 10 -9 6 3 10 10 10 16 0 5 -4 9 -10 9 -5 0 -10
-7 -10 -16z"/>
<path d="M1490 484 c0 -8 5 -12 10 -9 6 3 10 10 10 16 0 5 -4 9 -10 9 -5 0
-10 -7 -10 -16z"/>
<path d="M1630 490 c0 -5 5 -10 10 -10 6 0 10 5 10 10 0 6 -4 10 -10 10 -5 0
-10 -4 -10 -10z"/>
<path d="M1868 494 c-5 -4 -8 -23 -7 -43 0 -34 1 -34 10 -11 11 27 8 66 -3 54z"/>
<path d="M1350 470 c0 -5 5 -10 10 -10 6 0 10 5 10 10 0 6 -4 10 -10 10 -5 0
-10 -4 -10 -10z"/>
<path d="M1763 446 c5 -49 17 -58 17 -13 0 20 -5 39 -10 42 -7 4 -9 -6 -7 -29z"/>
<path d="M708 464 c-5 -4 -8 -23 -8 -43 0 -25 3 -32 11 -24 6 6 9 25 7 43 -2
17 -6 28 -10 24z"/>
<path d="M820 431 c0 -23 4 -40 9 -37 8 6 5 65 -4 74 -3 3 -5 -14 -5 -37z"/>
<path d="M1675 461 c-3 -5 -5 -29 -4 -53 1 -24 -1 -57 -5 -75 -9 -40 26 -125
49 -117 8 3 15 16 15 27 0 12 2 68 5 125 l5 102 -29 0 c-17 0 -32 -4 -36 -9z"/>
<path d="M2381 429 c-7 -22 -11 -43 -8 -45 2 -2 9 14 16 37 7 22 11 43 8 45
-2 2 -9 -14 -16 -37z"/>
<path d="M2421 454 c0 -11 3 -14 6 -6 3 7 2 16 -1 19 -3 4 -6 -2 -5 -13z"/>
<path d="M511 444 c0 -11 3 -14 6 -6 3 7 2 16 -1 19 -3 4 -6 -2 -5 -13z"/>
<path d="M855 450 c-3 -5 -1 -18 4 -27 9 -16 10 -14 11 10 0 28 -5 34 -15 17z"/>
<path d="M1490 421 c0 -23 5 -41 10 -41 6 0 10 15 10 34 0 19 -4 38 -10 41 -6
4 -10 -10 -10 -34z"/>
<path d="M1628 443 c-6 -26 2 -54 13 -48 12 8 12 65 0 65 -5 0 -11 -8 -13 -17z"/>
<path d="M422 420 c0 -19 2 -27 5 -17 2 9 2 25 0 35 -3 9 -5 1 -5 -18z"/>
<path d="M662 430 c0 -14 2 -19 5 -12 2 6 2 18 0 25 -3 6 -5 1 -5 -13z"/>
<path d="M770 440 c0 -5 5 -10 10 -10 6 0 10 5 10 10 0 6 -4 10 -10 10 -5 0
-10 -4 -10 -10z"/>
<path d="M1358 434 c-9 -8 1 -65 13 -78 5 -6 9 2 8 20 -1 36 -12 67 -21 58z"/>
<path d="M946 402 c-5 -18 -5 -36 -2 -39 7 -7 19 43 13 59 -2 7 -7 -2 -11 -20z"/>
<path d="M3122 417 c-6 -7 -20 -34 -31 -60 -11 -26 -25 -47 -31 -47 -6 0 -16
-11 -22 -25 -6 -14 -22 -28 -35 -31 -27 -7 -28 -12 -7 -43 12 -17 16 -45 15
-112 l0 -89 94 0 95 0 1 38 c0 20 0 78 -1 128 -1 58 4 110 15 146 22 78 10
108 -44 108 -21 0 -43 -6 -49 -13z"/>
<path d="M1975 400 c-3 -5 -1 -10 4 -10 6 0 11 5 11 10 0 6 -2 10 -4 10 -3 0
-8 -4 -11 -10z"/>
<path d="M1765 370 c-3 -5 -1 -10 4 -10 6 0 11 5 11 10 0 6 -2 10 -4 10 -3 0
-8 -4 -11 -10z"/>
<path d="M1968 374 c-5 -4 -8 -21 -8 -38 0 -21 3 -27 11 -19 6 6 9 23 7 38 -2
15 -6 23 -10 19z"/>
<path d="M1550 360 c-11 -7 -12 -12 -3 -21 12 -12 53 4 53 21 0 13 -30 13 -50
0z"/>
<path d="M1625 360 c3 -5 8 -10 11 -10 2 0 4 5 4 10 0 6 -5 10 -11 10 -5 0 -7
-4 -4 -10z"/>
<path d="M3460 360 c0 -12 8 -12 35 0 18 8 17 9 -7 9 -16 1 -28 -3 -28 -9z"/>
<path d="M1425 340 c-4 -6 -15 -8 -26 -5 -20 7 -24 -9 -13 -52 9 -34 24 -28
25 10 l1 32 13 -30 c8 -16 14 -40 15 -52 0 -13 5 -23 10 -23 6 0 8 -11 4 -25
-3 -14 -3 -37 0 -51 5 -20 12 -25 34 -22 24 3 27 7 25 38 -7 110 -10 123 -32
141 -13 11 -18 19 -12 19 6 0 11 7 11 15 0 17 -45 21 -55 5z"/>
<path d="M1812 338 c-15 -15 -16 -65 -1 -74 8 -5 8 -9 -1 -14 -6 -4 -12 -28
-13 -54 -2 -36 3 -51 16 -61 10 -7 18 -16 18 -19 -3 -20 1 -26 14 -26 18 0 20
27 3 32 -9 3 -8 9 5 22 26 26 23 66 -5 67 -23 0 -23 0 -2 9 20 8 23 29 16 113
-2 20 -32 23 -50 5z"/>
<path d="M1768 334 c-5 -4 -8 -23 -8 -43 0 -25 3 -32 11 -24 6 6 9 25 7 43 -2
17 -6 28 -10 24z"/>
<path d="M2386 323 c-6 -14 -5 -15 5 -6 7 7 10 15 7 18 -3 3 -9 -2 -12 -12z"/>
<path d="M1631 303 c-1 -17 4 -35 9 -38 11 -7 11 9 0 45 -8 24 -8 24 -9 -7z"/>
<path d="M1881 314 c0 -11 3 -14 6 -6 3 7 2 16 -1 19 -3 4 -6 -2 -5 -13z"/>
<path d="M648 314 c-5 -4 -8 -21 -8 -38 0 -21 3 -27 11 -19 6 6 9 23 7 38 -2
15 -6 23 -10 19z"/>
<path d="M697 313 c-11 -10 -8 -63 3 -63 6 0 10 16 10 35 0 36 -2 40 -13 28z"/>
<path d="M827 313 c-11 -10 -8 -61 3 -68 6 -4 10 10 10 34 0 42 -2 46 -13 34z"/>
<path d="M1237 313 c-10 -17 6 -73 20 -73 11 0 14 6 9 23 -3 12 -6 30 -6 40 0
17 -15 24 -23 10z"/>
<path d="M1566 273 c8 -26 12 -54 9 -62 -10 -27 18 -113 40 -121 11 -5 14 -9
7 -9 -9 -1 -12 -12 -10 -34 2 -27 8 -33 31 -35 31 -4 34 9 13 49 -8 16 -12 46
-10 72 2 25 0 48 -5 51 -5 3 -7 15 -4 26 4 17 0 20 -23 20 -27 1 -28 2 -10 15
27 20 9 69 -26 73 l-26 3 14 -48z"/>
<path d="M0 256 l0 -55 98 -3 c88 -3 228 12 252 27 6 3 10 24 10 46 l0 39
-180 0 -180 0 0 -54z"/>
<path d="M407 303 c-4 -3 -7 -20 -7 -36 0 -25 2 -28 15 -17 8 7 15 23 15 36 0
23 -10 31 -23 17z"/>
<path d="M750 310 c-1 -3 -4 -17 -5 -31 -3 -22 1 -28 21 -32 22 -4 24 -1 24
29 0 19 -4 34 -9 34 -4 0 -6 -11 -3 -25 2 -14 0 -25 -6 -25 -6 0 -13 12 -15
28 -2 15 -5 25 -7 22z"/>
<path d="M1525 268 c4 -18 9 -53 11 -78 3 -24 10 -49 16 -55 7 -7 9 5 4 45
-11 92 -18 120 -28 120 -7 0 -8 -12 -3 -32z"/>
<path d="M2055 281 c-3 -5 -1 -12 5 -16 5 -3 10 1 10 9 0 18 -6 21 -15 7z"/>
<path d="M926 253 c-4 -18 -11 -32 -14 -32 -4 1 -15 1 -25 0 -24 -1 -16 -26 9
-26 21 0 47 46 42 73 -3 11 -7 5 -12 -15z"/>
<path d="M2401 254 c0 -11 3 -14 6 -6 3 7 2 16 -1 19 -3 4 -6 -2 -5 -13z"/>
<path d="M1755 241 c-3 -5 -1 -12 5 -16 5 -3 10 1 10 9 0 18 -6 21 -15 7z"/>
<path d="M1328 232 c-27 -3 -27 -4 -23 -64 3 -33 7 -63 10 -68 2 -4 19 -4 37
-1 31 7 33 10 30 42 -4 34 -18 52 -34 43 -4 -3 -8 0 -8 5 0 6 7 11 15 11 15 0
21 26 8 32 -5 2 -20 2 -35 0z"/>
<path d="M1396 231 c-4 -5 -2 -12 3 -15 5 -4 12 -2 15 3 4 5 2 12 -3 15 -5 4
-12 2 -15 -3z"/>
<path d="M2720 236 c0 -23 34 -75 52 -80 32 -8 38 -8 38 4 0 6 -3 9 -7 9 -19
-3 -33 2 -33 11 0 12 52 13 66 2 5 -5 20 -3 34 4 22 12 23 14 5 15 -52 2 -90
11 -105 24 -15 13 -50 21 -50 11z"/>
<path d="M1250 205 c0 -8 5 -15 10 -15 6 0 10 7 10 15 0 8 -4 15 -10 15 -5 0
-10 -7 -10 -15z"/>
<path d="M2905 210 c-3 -5 1 -10 9 -10 8 0 18 5 21 10 3 6 -1 10 -9 10 -8 0
-18 -4 -21 -10z"/>
<path d="M743 203 c9 -2 25 -2 35 0 9 3 1 5 -18 5 -19 0 -27 -2 -17 -5z"/>
<path d="M1761 193 c-1 -12 4 -25 9 -28 12 -7 12 2 0 30 -8 19 -9 19 -9 -2z"/>
<path d="M1890 175 c0 -19 5 -35 10 -35 6 0 10 16 10 35 0 19 -4 35 -10 35 -5
0 -10 -16 -10 -35z"/>
<path d="M1981 194 c0 -11 3 -14 6 -6 3 7 2 16 -1 19 -3 4 -6 -2 -5 -13z"/>
<path d="M2061 194 c0 -11 3 -14 6 -6 3 7 2 16 -1 19 -3 4 -6 -2 -5 -13z"/>
<path d="M1714 178 c3 -13 6 -31 6 -40 0 -13 7 -17 25 -16 30 3 30 7 8 47 -21
37 -48 43 -39 9z"/>
<path d="M1406 158 c10 -50 26 -60 22 -14 -2 22 -9 41 -15 44 -9 2 -11 -6 -7
-30z"/>
<path d="M1670 160 c0 -21 5 -30 16 -30 11 0 14 5 10 16 -3 9 -6 22 -6 30 0 8
-4 14 -10 14 -5 0 -10 -13 -10 -30z"/>
<path d="M621 139 c-9 -27 -8 -30 7 -27 10 2 18 14 20 31 4 37 -13 34 -27 -4z"/>
<path d="M680 133 c0 -43 5 -41 13 5 4 18 2 32 -3 32 -6 0 -10 -16 -10 -37z"/>
<path d="M730 135 c0 -32 2 -35 30 -35 26 0 30 3 30 29 0 21 -6 30 -22 35 -36
9 -38 8 -38 -29z"/>
<path d="M827 153 c-3 -5 -1 -17 4 -28 7 -17 8 -17 8 8 1 27 -4 34 -12 20z"/>
<path d="M1886 121 c-4 -7 -5 -15 -2 -18 9 -9 19 4 14 18 -4 11 -6 11 -12 0z"/>
<path d="M2770 120 c8 -5 24 -10 35 -10 17 0 17 2 5 10 -8 5 -24 10 -35 10
-17 0 -17 -2 -5 -10z"/>
<path d="M1670 111 c0 -6 5 -13 10 -16 6 -3 10 1 10 9 0 9 -4 16 -10 16 -5 0
-10 -4 -10 -9z"/>
<path d="M1492 102 c-22 -7 -32 -28 -12 -26 6 1 19 2 30 3 11 0 20 8 20 16 0
16 -3 17 -38 7z"/>
<path d="M1722 63 c3 -42 6 -48 26 -51 44 -7 51 2 39 52 -9 42 -13 46 -39 46
-28 0 -29 -1 -26 -47z"/>
<path d="M2071 88 c1 -7 5 -24 9 -38 8 -24 8 -24 9 7 1 17 -3 35 -9 38 -5 3
-10 0 -9 -7z"/>
<path d="M1340 76 c0 -8 5 -18 10 -21 6 -3 10 -15 10 -26 0 -14 7 -19 25 -19
31 0 31 4 3 30 -12 11 -16 20 -10 20 7 0 12 7 12 15 0 9 -9 15 -25 15 -15 0
-25 -6 -25 -14z"/>
<path d="M1420 80 c0 -5 5 -10 10 -10 6 0 10 5 10 10 0 6 -4 10 -10 10 -5 0
-10 -4 -10 -10z"/>
<path d="M1681 63 c0 -10 4 -27 9 -38 7 -17 9 -15 9 12 1 17 -3 35 -9 38 -5 3
-10 -2 -9 -12z"/>
<path d="M1853 67 c4 -10 7 -27 7 -38 0 -14 7 -19 25 -19 14 0 25 2 25 4 0 2
-14 19 -32 37 -18 20 -29 26 -25 16z"/>
<path d="M1891 64 c0 -11 3 -14 6 -6 3 7 2 16 -1 19 -3 4 -6 -2 -5 -13z"/>
<path d="M670 59 c0 -5 5 -7 10 -4 6 3 10 8 10 11 0 2 -4 4 -10 4 -5 0 -10 -5
-10 -11z"/>
<path d="M720 60 c0 -5 11 -10 25 -10 14 0 28 0 32 -1 4 0 9 4 11 10 2 7 -11
11 -32 11 -20 0 -36 -4 -36 -10z"/>
<path d="M820 60 c0 -5 5 -10 10 -10 6 0 10 5 10 10 0 6 -4 10 -10 10 -5 0
-10 -4 -10 -10z"/>
<path d="M870 55 c0 -10 7 -14 23 -11 12 3 28 5 35 5 29 2 9 21 -23 21 -24 0
-35 -5 -35 -15z"/>
<path d="M1571 43 c-1 -18 4 -33 9 -33 12 0 12 17 0 45 -7 17 -9 15 -9 -12z"/>
<path d="M1815 50 c-7 -21 0 -40 16 -40 12 0 12 47 0 55 -5 3 -12 -4 -16 -15z"/>
<path d="M2423 58 c-15 -20 -23 -48 -14 -48 5 0 14 13 20 30 11 32 9 37 -6 18z"/>
<path d="M1310 38 c0 -18 5 -28 15 -28 19 0 19 11 0 36 -14 18 -14 18 -15 -8z"/>
<path d="M1474 45 c-9 -23 5 -35 43 -35 28 0 34 3 29 16 -3 9 -6 20 -6 25 0
15 -60 10 -66 -6z"/>
<path d="M1430 33 c0 -13 5 -23 10 -23 13 0 13 11 0 30 -8 12 -10 11 -10 -7z"/>
<path d="M280 26 c-39 -9 -41 -11 -17 -14 42 -5 77 2 69 14 -5 7 -21 7 -52 0z"/>
<path d="M605 20 c-3 -5 3 -10 15 -10 12 0 18 5 15 10 -3 6 -10 10 -15 10 -5
0 -12 -4 -15 -10z"/>
<path d="M720 20 c0 -5 16 -10 36 -10 21 0 33 4 29 10 -8 13 -65 13 -65 0z"/>
<path d="M865 20 c-4 -6 11 -10 37 -9 36 1 39 2 18 9 -36 11 -48 11 -55 0z"/>
</g>
</svg>
